<?xml version="1.0" encoding="UTF-8"?>
<svg width="400" height="300" viewBox="0 0 400 300" fill="none" xmlns="http://www.w3.org/2000/svg">
  <rect width="400" height="300" fill="#F3F4F6"/>
  <path d="M200 150C200 150 180 130 160 130C140 130 120 150 120 150C120 150 140 170 160 170C180 170 200 150 200 150Z" fill="#9CA3AF"/>
  <path d="M160 150C160 150 140 130 120 130C100 130 80 150 80 150C80 150 100 170 120 170C140 170 160 150 160 150Z" fill="#6B7280"/>
  <path d="M120 150C120 150 100 130 80 130C60 130 40 150 40 150C40 150 60 170 80 170C100 170 120 150 120 150Z" fill="#4B5563"/>
</svg> 