<?xml version="1.0" encoding="UTF-8"?>
<svg width="800" height="600" version="1.1" viewBox="0 0 800 600" xmlns="http://www.w3.org/2000/svg">
 <rect width="800" height="600" fill="#f3f4f6"/>
 <g fill="#9ca3af">
  <path d="m400 250c-41.4 0-75 33.6-75 75s33.6 75 75 75 75-33.6 75-75-33.6-75-75-75zm0 120c-24.9 0-45-20.1-45-45s20.1-45 45-45 45 20.1 45 45-20.1 45-45 45z"/>
  <path d="m400 280c-24.9 0-45 20.1-45 45s20.1 45 45 45 45-20.1 45-45-20.1-45-45-45zm0 60c-8.3 0-15-6.7-15-15s6.7-15 15-15 15 6.7 15 15-6.7 15-15 15z"/>
 </g>
</svg> 